<svg id="svg" version="1.1" xmlns="http://www.w3.org/2000/svg" xmlns:xlink="http://www.w3.org/1999/xlink" width="400" height="400" viewBox="0, 0, 400,400"><g id="svgg"><path id="path0" d="M277.578 172.500 C 276.777 173.301,277.492 174.022,279.092 174.028 L 280.371 174.033 281.824 176.225 C 282.623 177.431,285.461 181.724,288.130 185.765 L 292.983 193.112 286.698 202.610 L 280.413 212.109 279.113 212.109 C 277.407 212.109,276.742 212.872,277.696 213.735 C 278.227 214.215,310.149 214.238,310.628 213.758 C 311.516 212.870,310.856 212.111,309.189 212.104 L 307.910 212.098 301.601 202.616 L 295.292 193.133 301.601 183.585 L 307.910 174.036 309.189 174.030 C 310.543 174.023,310.938 173.823,310.938 173.145 C 310.938 172.919,310.832 172.629,310.703 172.500 C 310.364 172.160,277.918 172.160,277.578 172.500 M297.885 180.011 C 298.404 180.481,298.389 180.517,296.425 183.398 C 294.097 186.816,294.178 186.809,292.125 183.789 C 289.273 179.594,289.229 179.688,294.087 179.688 C 297.015 179.688,297.581 179.736,297.885 180.011 M305.469 212.024 C 305.469 212.071,300.371 212.109,294.141 212.109 C 287.910 212.109,282.813 212.065,282.813 212.010 C 282.813 211.955,285.370 208.075,288.497 203.388 L 294.181 194.865 299.825 203.402 C 302.929 208.097,305.469 211.977,305.469 212.024 M293.418 200.244 C 292.445 201.314,290.039 205.202,290.039 205.705 C 290.039 206.542,290.491 206.641,294.319 206.641 C 299.262 206.641,299.242 206.676,296.623 202.734 C 295.028 200.334,294.579 199.805,294.141 199.805 C 293.963 199.805,293.638 200.002,293.418 200.244 " stroke="none" fill="#3bb4fc" fill-rule="evenodd"></path><path id="path1" d="M46.094 180.957 L 46.094 189.844 33.789 189.844 L 21.484 189.844 21.484 193.359 L 21.484 196.875 33.789 196.875 L 46.094 196.875 46.094 205.371 L 46.094 213.867 49.707 213.867 L 53.320 213.867 53.320 192.969 L 53.320 172.070 49.707 172.070 L 46.094 172.070 46.094 180.957 M80.371 172.373 C 66.405 174.441,58.386 189.697,64.737 202.114 C 72.225 216.753,91.959 217.927,100.855 204.264 C 110.605 189.288,98.058 169.753,80.371 172.373 M113.477 186.506 C 113.477 203.646,113.562 204.384,115.990 208.139 C 121.078 216.012,137.355 215.769,142.600 207.743 C 145.001 204.068,145.117 203.069,145.117 186.107 L 145.117 172.070 141.510 172.070 L 137.903 172.070 137.848 186.670 L 137.793 201.270 137.339 202.393 C 135.948 205.840,133.493 207.288,129.004 207.310 C 125.648 207.327,124.533 206.930,122.800 205.104 C 120.544 202.724,120.508 202.422,120.508 185.804 L 120.508 172.070 116.992 172.070 L 113.477 172.070 113.477 186.506 M156.250 192.969 L 156.250 213.867 159.766 213.867 L 163.281 213.867 163.281 205.367 L 163.281 196.867 167.519 196.920 L 171.757 196.973 176.342 205.420 L 180.928 213.867 184.800 213.867 C 187.317 213.867,188.672 213.797,188.672 213.667 C 188.672 213.557,186.650 209.774,184.180 205.261 C 181.709 200.748,179.688 197.025,179.688 196.988 C 179.688 196.951,180.193 196.718,180.811 196.471 C 189.360 193.052,190.733 179.467,183.062 174.189 C 180.214 172.229,178.978 172.070,166.584 172.070 L 156.250 172.070 156.250 192.969 M213.409 172.370 C 199.919 174.914,192.132 189.319,197.761 201.318 C 203.874 214.350,219.422 217.819,231.006 208.736 L 232.227 207.779 232.227 199.202 L 232.227 190.625 224.414 190.625 L 216.602 190.625 216.602 194.141 L 216.602 197.656 220.898 197.656 L 225.195 197.656 225.195 201.038 L 225.195 204.420 224.463 204.830 C 210.802 212.480,196.113 195.489,206.597 184.165 C 212.269 178.039,219.428 177.586,226.663 182.895 C 226.905 183.073,232.227 179.448,232.227 179.104 C 232.227 178.769,229.333 176.254,227.785 175.246 C 223.745 172.612,218.107 171.484,213.409 172.370 M238.086 192.969 L 238.086 213.867 252.051 213.867 L 266.016 213.867 266.016 210.352 L 266.016 206.836 255.566 206.836 L 245.117 206.836 245.117 189.453 L 245.117 172.070 241.602 172.070 L 238.086 172.070 238.086 192.969 M330.185 172.294 C 322.185 173.319,317.196 179.663,318.855 186.701 C 319.954 191.361,323.444 194.079,330.168 195.508 C 335.772 196.700,337.619 197.898,337.988 200.583 C 338.756 206.165,330.232 208.924,325.464 204.636 L 324.707 203.955 321.973 206.092 C 318.841 208.538,318.917 208.436,319.656 209.212 C 327.987 217.971,343.897 213.912,345.496 202.620 C 346.525 195.354,342.366 190.647,333.501 189.043 C 329.594 188.337,328.593 188.046,327.608 187.333 C 325.478 185.789,325.586 182.002,327.803 180.496 C 330.690 178.533,336.339 178.888,338.643 181.176 L 339.494 182.021 342.306 179.854 C 345.599 177.316,345.451 177.689,343.777 176.141 C 340.258 172.889,335.671 171.591,330.185 172.294 M364.544 172.340 C 357.850 173.437,353.672 177.571,353.369 183.399 C 353.032 189.881,356.658 193.678,364.941 195.517 C 370.998 196.862,372.725 198.148,372.711 201.303 C 372.687 206.575,364.603 208.728,360.218 204.631 C 359.445 203.908,359.614 203.833,356.375 206.344 L 353.673 208.439 354.327 209.122 C 361.245 216.351,374.966 215.061,378.899 206.812 C 380.079 204.337,380.342 203.059,380.218 200.391 C 379.914 193.868,376.375 190.498,368.304 189.047 C 361.598 187.841,360.048 186.520,360.946 182.777 C 361.878 178.890,369.933 177.858,373.401 181.181 L 374.271 182.014 376.930 179.946 C 378.393 178.808,379.673 177.801,379.776 177.708 C 380.206 177.315,377.179 174.818,374.869 173.661 C 372.125 172.286,368.053 171.765,364.544 172.340 M85.897 179.400 C 95.438 181.292,100.176 192.427,94.848 200.438 C 88.903 209.375,75.759 208.454,70.945 198.762 C 66.075 188.959,75.108 177.261,85.897 179.400 M177.972 179.547 C 181.828 181.328,181.922 187.365,178.125 189.383 C 177.501 189.714,176.820 189.751,170.361 189.806 L 163.281 189.866 163.281 184.471 L 163.281 179.075 170.264 179.144 C 176.353 179.204,177.339 179.255,177.972 179.547 " stroke="none" fill="#044cac" fill-rule="evenodd"></path><path id="path2" d="" stroke="none" fill="#209c100" fill-rule="evenodd"></path><path id="path3" d="" stroke="none" fill="#2064d8" fill-rule="evenodd"></path><path id="path4" d="" stroke="none" fill="#2464ac" fill-rule="evenodd"></path></g></svg>